<svg xmlns="http://www.w3.org/2000/svg" viewBox="0 0 32 32"><title>64-Movie Clapper</title><g id="_64-Movie_Clapper" data-name="64-Movie Clapper"><path d="M29,0H3A3,3,0,0,0,0,3V29a3,3,0,0,0,3,3H29a3,3,0,0,0,3-3V3A3,3,0,0,0,29,0ZM26.59,2l-5,5H15.41l5-5Zm-9,0-5,5H6.41l5-5ZM2,3A1,1,0,0,1,3,2H8.59l-5,5H2ZM30,29a1,1,0,0,1-1,1H3a1,1,0,0,1-1-1V13H30ZM30,7H24.41l4.93-4.93A1,1,0,0,1,30,3Z"/><polygon points="18 27 20 27 20 24 28 24 28 22 20 22 20 18 28 18 28 16 4 16 4 18 18 18 18 22 4 22 4 24 18 24 18 27"/></g></svg>